<?xml version="1.0"?>
<svg xmlns="http://www.w3.org/2000/svg" viewBox="0 0 64 64" width="512" height="512"><g id="Filled_outline" data-name="Filled outline"><path d="M53,7a8,8,0,0,0-8,8,8.376,8.376,0,0,0,2,5,33.1,33.1,0,0,0-7,7,17.906,17.906,0,0,0-6-1.845V19a8.307,8.307,0,0,0,6-8,8,8,0,0,0-16,0,8.307,8.307,0,0,0,6,8v6a9.73,9.73,0,0,0-5,1c-2-3-4.095-3.933-6-4V20a8,8,0,1,0-8,8,7.338,7.338,0,0,0,5-2c1.788.2,3.947.7,5,3-2.247,2.486-3,6.135-3,10V57H16.107a2.075,2.075,0,0,0-2.08,1.664A2,2,0,0,0,16,61H28V59a2,2,0,0,1,2-2h4a2,2,0,0,1,2,2v2H48a2,2,0,0,0,1.973-2.336A2.075,2.075,0,0,0,47.893,57H46V39c0-3.111,0-6-2-9a21.021,21.021,0,0,1,6-7h3A8,8,0,0,0,53,7Z" style="fill:#f98c96"/><circle cx="32" cy="13" r="2" style="fill:#2e3131"/><path d="M38.921,7A7.988,7.988,0,0,0,25.079,7Z" style="fill:#dd3e46"/><circle cx="9" cy="22" r="2" style="fill:#2e3131"/><path d="M17.921,16A7.988,7.988,0,0,0,4.079,16Z" style="fill:#dd3e46"/><circle cx="55" cy="17" r="2" style="fill:#2e3131"/><path d="M59.921,11a7.988,7.988,0,0,0-13.842,0Z" style="fill:#dd3e46"/><rect x="18" y="56" width="5" height="2" style="fill:#dd3e46"/><rect x="41" y="56" width="5" height="2" style="fill:#dd3e46"/><path d="M37,46a.986.986,0,0,1-.371-.071,13.823,13.823,0,0,0-9.258,0,1,1,0,1,1-.742-1.858,15.73,15.73,0,0,1,10.742,0A1,1,0,0,1,37,46Z" style="fill:#dd3e46"/><path d="M33,49H31a1,1,0,0,1,0-2h2a1,1,0,0,1,0,2Z" style="fill:#dd3e46"/><rect x="21" y="50" width="2" height="2" style="fill:#dd3e46"/><rect x="25" y="52" width="2" height="2" style="fill:#dd3e46"/><path d="M35,13a3,3,0,1,0-3,3A3,3,0,0,0,35,13Zm-4,0a1,1,0,1,1,1,1A1,1,0,0,1,31,13Z"/><path d="M9,19a3,3,0,1,0,3,3A3,3,0,0,0,9,19Zm0,4a1,1,0,1,1,1-1A1,1,0,0,1,9,23Z"/><path d="M55,14a3,3,0,1,0,3,3A3,3,0,0,0,55,14Zm0,4a1,1,0,1,1,1-1A1,1,0,0,1,55,18Z"/><path d="M53,6a9.01,9.01,0,0,0-9,9,8.805,8.805,0,0,0,1.627,4.812,33.485,33.485,0,0,0-5.959,5.92A18.144,18.144,0,0,0,35,24.3V19.736A9.336,9.336,0,0,0,41,11a9,9,0,0,0-18,0,9.336,9.336,0,0,0,6,8.736v4.282a10.261,10.261,0,0,0-3.67.717A8.6,8.6,0,0,0,20,21.1V20a9,9,0,1,0-9,9,8.22,8.22,0,0,0,5.31-1.954A4.582,4.582,0,0,1,19.8,28.88C17.94,31.258,17,34.657,17,39V56h-.893a3.084,3.084,0,0,0-3.067,2.5A3,3,0,0,0,16,62H28a1,1,0,0,0,1-1V59a1,1,0,0,1,1-1h4a1,1,0,0,1,1,1v2a1,1,0,0,0,1,1H48a3,3,0,0,0,2.96-3.5A3.084,3.084,0,0,0,47.893,56H47V39c0-3.066,0-5.973-1.836-9.031A20.166,20.166,0,0,1,50.311,24H53A9,9,0,0,0,53,6Zm4.889,4H48.111a6.976,6.976,0,0,1,9.778,0Zm-21-4H27.111a6.976,6.976,0,0,1,9.778,0Zm-21,9H6.111a6.976,6.976,0,0,1,9.778,0ZM53,22H50a1.006,1.006,0,0,0-.555.168,22.145,22.145,0,0,0-6.328,7.361,1,1,0,0,0,.051,1.026C45,33.3,45,35.943,45,39V56H41v2h6.893a1.083,1.083,0,0,1,1.092.825A1,1,0,0,1,48,60H37V59a3,3,0,0,0-3-3H30a3,3,0,0,0-3,3v1H16a1,1,0,0,1-.985-1.175A1.083,1.083,0,0,1,16.107,58H23V56H19V39c0-4.179.923-7.317,2.742-9.329a1,1,0,0,0,.167-1.087c-1.417-3.1-4.6-3.446-5.8-3.578a1.007,1.007,0,0,0-.766.241A6.354,6.354,0,0,1,11,27,6.984,6.984,0,0,1,4.685,17h12.63A6.955,6.955,0,0,1,18,20v2a1,1,0,0,0,.965,1c1.952.069,3.654,1.232,5.2,3.556a1,1,0,0,0,1.308.325A8.84,8.84,0,0,1,30,26a1,1,0,0,0,1-1V19a1,1,0,0,0-.75-.969A7.352,7.352,0,0,1,25,11a6.955,6.955,0,0,1,.685-3h12.63A6.955,6.955,0,0,1,39,11a7.352,7.352,0,0,1-5.25,7.031A1,1,0,0,0,33,19v6.154a1,1,0,0,0,.861.991,16.941,16.941,0,0,1,5.692,1.75,1,1,0,0,0,1.279-.34,31.582,31.582,0,0,1,6.785-6.768,1,1,0,0,0,.168-1.406A7.447,7.447,0,0,1,46,15a6.955,6.955,0,0,1,.685-3h12.63A6.984,6.984,0,0,1,53,22Z"/><path d="M37.371,44.071a15.73,15.73,0,0,0-10.742,0,1,1,0,1,0,.742,1.858,13.823,13.823,0,0,1,9.258,0A.986.986,0,0,0,37,46a1,1,0,0,0,.371-1.929Z"/><path d="M33,47H31a1,1,0,0,0,0,2h2a1,1,0,0,0,0-2Z"/><rect x="21" y="50" width="2" height="2"/><rect x="25" y="52" width="2" height="2"/></g></svg>
