<svg height="512" viewBox="0 0 58 58" width="512" xmlns="http://www.w3.org/2000/svg"><g id="020---Alien" fill="none"><path id="Shape" d="m35 9h-4c-.5522847 0-1-.44771525-1-1s.4477153-1 1-1h4c.5522847 0 1 .44771525 1 1s-.4477153 1-1 1z" fill="#7f8c8d"/><path id="Shape" d="m13 9h-4c-.55228475 0-1-.44771525-1-1s.44771525-1 1-1h4c.5522847 0 1 .44771525 1 1s-.4477153 1-1 1z" fill="#7f8c8d"/><path id="Shape" d="m28 20s3-7 3-13c0-3-3-7-9-7s-9 4-9 7c0 6 3 13 3 13l6 2z" fill="#fb7b76"/><path id="Shape" d="m18.29 15.71c-.3921222-.3921222-.3921222-1.0278778 0-1.42s1.0278778-.3921222 1.42 0c1.3823198.9506854 3.2076802.9506854 4.59 0 .3900375-.3877236 1.0199625-.3877236 1.41 0 .3811429.3888435.3811429 1.0111565 0 1.4-1.71 1.74-5.71 1.74-7.42.02z" fill="#df4d60"/><circle id="Oval" cx="22" cy="8" fill="#fff" r="4"/><circle id="Oval" cx="22" cy="8" fill="#464f5d" r="1"/><g fill="#fb7b76"><circle id="Oval" cx="37" cy="8" r="2"/><circle id="Oval" cx="7" cy="8" r="2"/><path id="Shape" d="m9.25 24c-6.66 3.12-10.49 9-8.88 17.43.05525471.3135759.3151757.5503548.63253077.5762133.31735506.0258586.61217917-.1657189.71746923-.4662133 1.23-3.6 3.88-10.73 8.67-13l2.61-2.54z"/><path id="Shape" d="m34.75 24c6.66 3.13 10.49 9 8.88 17.44-.0552547.3135759-.3151757.5503548-.6325308.5762133-.317355.0258586-.6121791-.1657189-.7174692-.4662133-1.23-3.6-3.88-10.73-8.67-13l-1.61-2.55z"/></g><path id="Shape" d="m58 51.65c.0267227.1188121-.0264143.2412726-.1314395.3029179-.1050252.0616452-.2378523.0483375-.3285605-.0329179-1.7130449-1.7928602-4.0615535-2.8414298-6.54-2.92-5 0-10 9-22 9s-14-8-14-14l8-3 6 3s0 6 7 6c6 0 7-6 14-6 4.28 0 7 3.59 8 7.65z" fill="#df4d60"/><path id="Shape" d="m30 43c.0408769-3.8465326-.4367539-7.6810336-1.42-11.4-.0924715-.333042-.0064018-.6902243.2276169-.9445925s.5828029-.3698531.9223831-.3054075l2.34.46c.5218844.1008242 1.0314511-.2242443 1.16-.74l1.56-6.24c.1244991-.4771979-.1174888-.9739097-.57-1.17l-6.22-2.66h-12l-6.22 2.66c-.45251125.1960903-.69449906.6928021-.57 1.17l1.56 6.24c.1285489.5157557.6381156.8408242 1.16.74l2.34-.46c.3395802-.0644456.6883644.0510393.9223831.3054075s.3200884.6115505.2276169.9445925c-.9832461 3.7189664-1.4608769 7.5534674-1.42 11.4 0 .5522847.4477153 1 1 1h14c.5522847 0 1-.4477153 1-1z" fill="#c03a2b"/><path id="Shape" d="m21 38c-.3824923-.001757-.7304753-.221544-.8964082-.5661738s-.1207435-.7537221.1164082-1.0538262l2.7-3.38h-3.92c-.3824923-.001757-.7304753-.221544-.8964082-.5661738s-.1207435-.7537221.1164082-1.0538262l4-5c.1652201-.2089813.4069976-.3433986.6717023-.373436s.5304531.0467883.7382977.213436c.4257366.3464209.4926824.9712485.15 1.4l-2.7 3.38h3.92c.3824923.001757.7304753.221544.8964082.5661738s.1207435.7537221-.1164082 1.0538262l-4 5c-.1886474.2387374-.475728.3785972-.78.38z" fill="#f3d55b"/></g></svg>